<svg width="64" height="64" viewBox="0 0 64 64" fill="none" xmlns="http://www.w3.org/2000/svg">
<path d="M26.0667 32C24.4667 32 23.1334 31.4 22.0667 30.2C21.0001 29 20.5779 27.6 20.8001 26L21.6667 19.4667C22.0223 16.9333 23.1779 14.8329 25.1334 13.1653C27.089 11.4978 29.3779 10.6649 32.0001 10.6667C34.6223 10.6684 36.9112 11.5022 38.8667 13.168C40.8223 14.8338 41.9779 16.9333 42.3334 19.4667L43.2001 26C43.4223 27.6 43.0001 29 41.9334 30.2C40.8668 31.4 39.5334 32 37.9334 32H26.0667ZM10.6667 53.3333V45.8667C10.6667 44.3556 11.0561 42.9671 11.8347 41.7013C12.6134 40.4355 13.6463 39.4684 14.9334 38.8C17.689 37.4222 20.489 36.3893 23.3334 35.7013C26.1779 35.0133 29.0667 34.6684 32.0001 34.6667C34.9334 34.6649 37.8223 35.0098 40.6667 35.7013C43.5112 36.3929 46.3112 37.4258 49.0667 38.8C50.3556 39.4667 51.3894 40.4338 52.1681 41.7013C52.9467 42.9689 53.3352 44.3573 53.3334 45.8667V53.3333H10.6667Z" fill="black"/>
</svg>
